<svg id="LOGO_FOND_NOIR" data-name="LOGO FOND NOIR" xmlns="http://www.w3.org/2000/svg" xmlns:xlink="http://www.w3.org/1999/xlink" viewBox="0 0 1918.42 1078.95"><defs><style>.cls-1{fill:#221f20;}.cls-2{fill:url(#Dégradé_sans_nom_27);}.cls-3{fill:url(#Dégradé_sans_nom_27-2);}.cls-4,.cls-6{fill:#fff;}.cls-5{fill:url(#Dégradé_sans_nom_27-3);}.cls-6{font-size:107.35px;font-family:GothamRounded-Medium, GothamRounded Medium;font-weight:500;}</style><linearGradient id="Dégradé_sans_nom_27" x1="647.18" y1="601.33" x2="647.18" y2="324.29" gradientUnits="userSpaceOnUse"><stop offset="0" stop-color="#db5150"/><stop offset="1" stop-color="#e17839"/></linearGradient><linearGradient id="Dégradé_sans_nom_27-2" x1="821.71" y1="601.33" x2="821.71" y2="324.29" xlink:href="#Dégradé_sans_nom_27"/><linearGradient id="Dégradé_sans_nom_27-3" x1="1573.51" y1="442.11" x2="1573.51" y2="249.66" xlink:href="#Dégradé_sans_nom_27"/></defs><title>logo JOZA IT-noir</title><rect class="cls-1" width="1918.42" height="1078.95"/><g id="Calque_2" data-name="Calque 2"><path class="cls-2" d="M689.75,601.33a27.47,27.47,0,0,1-7.14-.94,142.35,142.35,0,0,1,0-275.16A27.81,27.81,0,1,1,696.86,379a86.72,86.72,0,0,0,0,167.62,27.82,27.82,0,0,1-7.11,54.71Z" transform="translate(0.42 -0.21)"/><path class="cls-3" d="M779.14,601.33A27.82,27.82,0,0,1,772,546.62,86.72,86.72,0,0,0,772,379a27.81,27.81,0,0,1,14.25-53.77,142.35,142.35,0,0,1,0,275.16A27.47,27.47,0,0,1,779.14,601.33Z" transform="translate(0.42 -0.21)"/><path class="cls-4" d="M346.37,593.52a33.14,33.14,0,0,1-12.51-25.44c0-17.68,13.8-31.91,31.48-31.91,8.19,0,13.37,2.16,19.83,6.9,13.37,9.92,25,15.1,40.11,15.1,25.87,0,41.39-15.1,41.39-50V344.29a33.21,33.21,0,0,1,66.41,0V511.16c0,35.79-10.35,62.53-28.46,80.64-18.54,18.54-45.71,28-78.48,28C391.65,619.83,365.34,608.18,346.37,593.52Z" transform="translate(0.42 -0.21)"/><path class="cls-4" d="M905.49,586.19V584.9c0-11.64,4.3-22,12.07-31l156.52-182H940c-16,0-29.32-12.94-29.32-28.89A29.63,29.63,0,0,1,940,313.68h192.75A29.63,29.63,0,0,1,1162.05,343v1.29c0,11.64-4.31,21.56-12.08,31l-156.52,182h139.28a29.64,29.64,0,0,1,29.32,29.32c0,16-13.37,28.89-29.32,28.89H934.81A29.62,29.62,0,0,1,905.49,586.19Z" transform="translate(0.42 -0.21)"/><path class="cls-4" d="M1479.9,572.82,1374.7,335.24c-7.34-16.39-20.27-26.31-38.38-26.31h-3.88c-18.12,0-31.48,9.92-38.81,26.31L1188.42,572.82c-2.16,4.75-3.88,9.49-3.88,14.23,0,17.25,13.36,31.05,30.61,31.05,13.8,0,25-7.76,30.62-20.7l87.53-207.83L1420,595.25c6,13.8,16.38,22.85,31.91,22.85,17.68,0,31.48-14.23,31.48-31.91C1483.36,581.88,1482.07,577.57,1479.9,572.82Z" transform="translate(0.42 -0.21)"/><circle class="cls-5" cx="1573.51" cy="345.88" r="96.23"/><text class="cls-6" transform="translate(1521.72 384.1)">IT</text><path class="cls-4" d="M338.39,737.82v-40a4.24,4.24,0,0,1,4.31-4.3H371a3.85,3.85,0,0,1,3.82,3.82,3.8,3.8,0,0,1-3.82,3.81h-24v12.64h20.9a3.86,3.86,0,0,1,3.81,3.88,3.78,3.78,0,0,1-3.81,3.75h-20.9v13H371.3a3.85,3.85,0,0,1,3.81,3.82,3.8,3.8,0,0,1-3.81,3.82H342.7A4.25,4.25,0,0,1,338.39,737.82Z" transform="translate(0.42 -0.21)"/><path class="cls-4" d="M423.92,735.33l14.44-17.91-13.61-16.87a5.47,5.47,0,0,1-1.32-3.19,4.12,4.12,0,0,1,4.24-4.17,4.4,4.4,0,0,1,3.88,2.08l12.29,16.18L456,695.55a4.81,4.81,0,0,1,4.16-2.36,3.92,3.92,0,0,1,3.89,3.89,5,5,0,0,1-1.32,3.26l-13.6,16.94,14.3,17.84a5.28,5.28,0,0,1,1.31,3.19,4.1,4.1,0,0,1-4.23,4.16,4.39,4.39,0,0,1-3.89-2.08l-13.05-17-12.84,16.73c-1.18,1.52-2.29,2.35-4.16,2.35a3.89,3.89,0,0,1-3.89-4A5.29,5.29,0,0,1,423.92,735.33Z" transform="translate(0.42 -0.21)"/><path class="cls-4" d="M515,697.84a4.23,4.23,0,0,1,4.3-4.3h14.86c11.38,0,18.46,6.46,18.46,16.24v.14c0,10.9-8.75,16.59-19.44,16.59h-9.64v11.73a4.27,4.27,0,0,1-8.54,0Zm18.46,21c6.46,0,10.48-3.61,10.48-8.68V710c0-5.69-4.09-8.68-10.48-8.68h-9.92v17.5Z" transform="translate(0.42 -0.21)"/><path class="cls-4" d="M601.63,737.82v-40a4.24,4.24,0,0,1,4.31-4.3h28.25a3.85,3.85,0,0,1,3.82,3.82,3.8,3.8,0,0,1-3.82,3.81h-24v12.64h20.89a3.86,3.86,0,0,1,3.82,3.88,3.79,3.79,0,0,1-3.82,3.75H610.17v13h24.37a3.85,3.85,0,0,1,3.81,3.82,3.8,3.8,0,0,1-3.81,3.82h-28.6A4.25,4.25,0,0,1,601.63,737.82Z" transform="translate(0.42 -0.21)"/><path class="cls-4" d="M688.41,697.84a4.23,4.23,0,0,1,4.3-4.3h17.35c6.11,0,10.9,1.8,14,4.86a14.73,14.73,0,0,1,4,10.48V709c0,7.77-4.51,12.49-11,14.51l9.3,11.73a5,5,0,0,1,1.39,3.26,4,4,0,0,1-4.1,4,4.9,4.9,0,0,1-4.17-2.22l-11.79-15.06H697v13a4.27,4.27,0,0,1-8.54,0Zm21,19.78c6.11,0,10-3.19,10-8.12v-.13c0-5.21-3.75-8.06-10.07-8.06H697v16.31Z" transform="translate(0.42 -0.21)"/><path class="cls-4" d="M790.59,701.45h-11.8a4,4,0,0,1,0-7.91h32.28a4,4,0,0,1,0,7.91H799.2v36.79a4.31,4.31,0,0,1-8.61,0Z" transform="translate(0.42 -0.21)"/><path class="cls-4" d="M957.41,741.5l-5.07-5.13c-4.1,4-9,6.45-15,6.45-9.1,0-15.9-5.48-15.9-13.88v-.14c0-6.25,3.68-10.76,10.34-13.6-2.77-3.54-4-6.6-4-10.14v-.14c0-6.52,5.27-12.21,14-12.21,7.7,0,12.91,5.2,12.91,11.73v.14c0,6.38-4.23,10.2-10.62,12.63l8.26,8.4a53.53,53.53,0,0,0,4-6.94,3.62,3.62,0,0,1,3.2-2,3.7,3.7,0,0,1,3.68,3.61,4.41,4.41,0,0,1-.49,1.88,81.08,81.08,0,0,1-5.27,8.53l5.41,5.42a3.84,3.84,0,0,1,1.32,2.91,3.71,3.71,0,0,1-3.75,3.82A3.82,3.82,0,0,1,957.41,741.5Zm-10-10.06-10.83-11c-4.58,2-6.52,5-6.52,8.12v.14c0,4.1,3.4,7.08,8.12,7.08C941.58,735.74,944.63,734.08,947.41,731.44Zm-.35-26.38v-.14a5.24,5.24,0,0,0-5.48-5.48,5.58,5.58,0,0,0-5.83,5.83v.14c0,2.43,1,4.23,3.68,7.22C944.43,710.82,947.06,708.6,947.06,705.06Z" transform="translate(0.42 -0.21)"/><path class="cls-4" d="M1074.66,697.43a4.27,4.27,0,0,1,8.54,0v16.31h23.18V697.43a4.27,4.27,0,0,1,8.54,0v40.81a4.27,4.27,0,0,1-8.54,0V721.65H1083.2v16.59a4.27,4.27,0,0,1-8.54,0Z" transform="translate(0.42 -0.21)"/><path class="cls-4" d="M1166.92,721.51V697.43a4.27,4.27,0,0,1,8.54,0v23.74c0,9,4.65,13.81,12.28,13.81s12.22-4.51,12.22-13.47V697.43a4.27,4.27,0,0,1,8.54,0V721.1c0,14.5-8.2,21.79-20.9,21.79S1166.92,735.6,1166.92,721.51Z" transform="translate(0.42 -0.21)"/><path class="cls-4" d="M1260.49,697.57a4.29,4.29,0,0,1,4.31-4.31h.9a4.51,4.51,0,0,1,4,2.29l14.71,23.05,14.79-23.12a4.3,4.3,0,0,1,3.88-2.22h.91a4.28,4.28,0,0,1,4.3,4.31v40.67a4.22,4.22,0,0,1-4.3,4.23,4.29,4.29,0,0,1-4.24-4.23V709.09l-11.87,17.84a4,4,0,0,1-7.15,0l-11.8-17.7v29.08a4.14,4.14,0,0,1-4.23,4.16,4.09,4.09,0,0,1-4.17-4.16Z" transform="translate(0.42 -0.21)"/><path class="cls-4" d="M1358.24,736.58l18-40.26a5.42,5.42,0,0,1,5.14-3.47h.42a5.3,5.3,0,0,1,5.06,3.47l18,40.26a3.65,3.65,0,0,1,.49,1.8,4,4,0,0,1-4,4.09,4.39,4.39,0,0,1-4.16-3l-4-9.09h-23.6l-4.1,9.37a4.1,4.1,0,0,1-3.95,2.7,3.91,3.91,0,0,1-4-4A4.3,4.3,0,0,1,1358.24,736.58ZM1390,722.83l-8.54-19.64L1373,722.83Z" transform="translate(0.42 -0.21)"/><path class="cls-4" d="M1454.94,697.57a4.28,4.28,0,0,1,4.3-4.31h.9c2.09,0,3.27,1,4.45,2.5l24.29,31.44V697.36a4.2,4.2,0,0,1,8.4,0v40.81a4.15,4.15,0,0,1-4.16,4.24h-.35c-2,0-3.26-1-4.44-2.57l-25-32.35v30.82a4.2,4.2,0,0,1-8.4,0Z" transform="translate(0.42 -0.21)"/></g></svg>