<?xml version="1.0" encoding="UTF-8" standalone="no"?>
<!-- Generator: Adobe Illustrator 19.0.0, SVG Export Plug-In . SVG Version: 6.00 Build 0)  -->

<svg
   xmlns:dc="http://purl.org/dc/elements/1.1/"
   xmlns:cc="http://creativecommons.org/ns#"
   xmlns:rdf="http://www.w3.org/1999/02/22-rdf-syntax-ns#"
   xmlns:svg="http://www.w3.org/2000/svg"
   xmlns="http://www.w3.org/2000/svg"
   xmlns:sodipodi="http://sodipodi.sourceforge.net/DTD/sodipodi-0.dtd"
   xmlns:inkscape="http://www.inkscape.org/namespaces/inkscape"
   version="1.1"
   id="Layer_1"
   x="0px"
   y="0px"
   viewBox="0 0 382 382"
   style="enable-background:new 0 0 382 382;"
   xml:space="preserve"
   sodipodi:docname="linkedin.svg"
   inkscape:version="0.92.4 (5da689c313, 2019-01-14)"><metadata
   id="metadata4731"><rdf:RDF><cc:Work
       rdf:about=""><dc:format>image/svg+xml</dc:format><dc:type
         rdf:resource="http://purl.org/dc/dcmitype/StillImage" /><dc:title></dc:title></cc:Work></rdf:RDF></metadata><defs
   id="defs4729" /><sodipodi:namedview
   pagecolor="#ffffff"
   bordercolor="#666666"
   borderopacity="1"
   objecttolerance="10"
   gridtolerance="10"
   guidetolerance="10"
   inkscape:pageopacity="0"
   inkscape:pageshadow="2"
   inkscape:window-width="2496"
   inkscape:window-height="1376"
   id="namedview4727"
   showgrid="false"
   inkscape:pagecheckerboard="true"
   inkscape:zoom="1.7474052"
   inkscape:cx="142.24985"
   inkscape:cy="165.77216"
   inkscape:window-x="1984"
   inkscape:window-y="27"
   inkscape:window-maximized="1"
   inkscape:current-layer="Layer_1" />
<rect
   style="opacity:1;fill:#ffffff;fill-opacity:1"
   id="rect5276"
   width="325.62567"
   height="318.18607"
   x="29.186131"
   y="-349.95248"
   transform="scale(1,-1)" /><path
   style="fill:#0077B7;"
   d="M347.445,0H34.555C15.471,0,0,15.471,0,34.555v312.889C0,366.529,15.471,382,34.555,382h312.889  C366.529,382,382,366.529,382,347.444V34.555C382,15.471,366.529,0,347.445,0z M118.207,329.844c0,5.554-4.502,10.056-10.056,10.056  H65.345c-5.554,0-10.056-4.502-10.056-10.056V150.403c0-5.554,4.502-10.056,10.056-10.056h42.806  c5.554,0,10.056,4.502,10.056,10.056V329.844z M86.748,123.432c-22.459,0-40.666-18.207-40.666-40.666S64.289,42.1,86.748,42.1  s40.666,18.207,40.666,40.666S109.208,123.432,86.748,123.432z M341.91,330.654c0,5.106-4.14,9.246-9.246,9.246H286.73  c-5.106,0-9.246-4.14-9.246-9.246v-84.168c0-12.556,3.683-55.021-32.813-55.021c-28.309,0-34.051,29.066-35.204,42.11v97.079  c0,5.106-4.139,9.246-9.246,9.246h-44.426c-5.106,0-9.246-4.14-9.246-9.246V149.593c0-5.106,4.14-9.246,9.246-9.246h44.426  c5.106,0,9.246,4.14,9.246,9.246v15.655c10.497-15.753,26.097-27.912,59.312-27.912c73.552,0,73.131,68.716,73.131,106.472  L341.91,330.654L341.91,330.654z"
   id="path4694" />
<g
   id="g4696">
</g>
<g
   id="g4698">
</g>
<g
   id="g4700">
</g>
<g
   id="g4702">
</g>
<g
   id="g4704">
</g>
<g
   id="g4706">
</g>
<g
   id="g4708">
</g>
<g
   id="g4710">
</g>
<g
   id="g4712">
</g>
<g
   id="g4714">
</g>
<g
   id="g4716">
</g>
<g
   id="g4718">
</g>
<g
   id="g4720">
</g>
<g
   id="g4722">
</g>
<g
   id="g4724">
</g>
</svg>