<?xml version="1.0" encoding="utf-8"?>
<!-- Generator: Adobe Illustrator 21.1.0, SVG Export Plug-In . SVG Version: 6.00 Build 0)  -->
<svg version="1.1" id="Calque_1" xmlns="http://www.w3.org/2000/svg" xmlns:xlink="http://www.w3.org/1999/xlink" x="0px" y="0px"
	 width="1500px" height="600px" viewBox="0 0 1500 600" style="enable-background:new 0 0 1500 600;" xml:space="preserve">
<style type="text/css">
	.st0{enable-background:new    ;}
</style>
<g>
	<g>
		<g class="st0">
			<g>
				<g>
					<defs>
						<path id="SVGID_1_" d="M271,436.4l0,4.7c-0.1,25.2,20.2,45.7,45.4,45.8h0.2c25,0,45.5-20.3,45.6-45.4v-1.6L316,391.7
							L271,436.4z"/>
					</defs>
					<use xlink:href="#SVGID_1_"  style="overflow:visible;fill-rule:evenodd;clip-rule:evenodd;fill:#FF2674;"/>
					<clipPath id="SVGID_2_">
						<use xlink:href="#SVGID_1_"  style="overflow:visible;"/>
					</clipPath>
				</g>
			</g>
		</g>
	</g>
</g>
<g>
	<defs>
		<path id="SVGID_3_" d="M363.3,176l0-9c0.1-25.2-20.2-45.7-45.4-45.8c-12.1-0.4-23.6,4.6-32.3,13.2c-8.6,8.6-13.4,20-13.5,32.2
			l0,5.8l46.1,48.2L363.3,176z"/>
	</defs>
	<use xlink:href="#SVGID_3_"  style="overflow:visible;fill-rule:evenodd;clip-rule:evenodd;fill:#FF2674;"/>
	<clipPath id="SVGID_4_">
		<use xlink:href="#SVGID_3_"  style="overflow:visible;"/>
	</clipPath>
</g>
<g>
	<defs>
		<path id="SVGID_5_" d="M257.9,178.2l-2.6-2.7c-8.4-8.8-19.8-13.8-31.9-14.1c-12.3-0.2-23.7,4.2-32.5,12.7
			c-18.2,17.4-18.8,46.4-1.4,64.5l6.8,7.1l96.3,0.4l15.5-15.4L257.9,178.2z"/>
	</defs>
	<use xlink:href="#SVGID_5_"  style="overflow:visible;fill-rule:evenodd;clip-rule:evenodd;fill:#FF4967;"/>
	<clipPath id="SVGID_6_">
		<use xlink:href="#SVGID_5_"  style="overflow:visible;"/>
	</clipPath>
</g>
<g>
	<defs>
		<path id="SVGID_7_" d="M444.8,373.8l-6.8-7.1l-96.3-0.4l-15.5,15.4l52.8,55.3c17.4,18.2,46.3,18.8,64.4,1.4
			C461.5,420.9,462.2,391.9,444.8,373.8"/>
	</defs>
	<use xlink:href="#SVGID_7_"  style="overflow:visible;fill-rule:evenodd;clip-rule:evenodd;fill:#FF4967;"/>
	<clipPath id="SVGID_8_">
		<use xlink:href="#SVGID_7_"  style="overflow:visible;"/>
	</clipPath>
</g>
<g>
	<defs>
		<path id="SVGID_9_" d="M454.3,261.1l-6.8,0L401,307.3l-10.1,10l-14,13.9l-14.3,14.2L356,352l98,0.4h0.2c12.1,0,23.5-4.7,32.1-13.2
			c8.6-8.6,13.4-20,13.5-32.2C499.8,281.8,479.5,261.3,454.3,261.1"/>
	</defs>
	<use xlink:href="#SVGID_9_"  style="overflow:visible;fill-rule:evenodd;clip-rule:evenodd;fill:#FF2674;"/>
	<clipPath id="SVGID_10_">
		<use xlink:href="#SVGID_9_"  style="overflow:visible;"/>
	</clipPath>
</g>
<g>
	<defs>
		<path id="SVGID_11_" d="M180.3,260h-0.2c-12.1,0-23.5,4.7-32.1,13.2c-8.6,8.6-13.4,20-13.5,32.2c-0.1,12.2,4.6,23.7,13.2,32.3
			c8.6,8.7,20,13.5,32.2,13.5l6.8,0l91.5-90.9L180.3,260z"/>
	</defs>
	<use xlink:href="#SVGID_11_"  style="overflow:visible;fill-rule:evenodd;clip-rule:evenodd;fill:#FF2674;"/>
	<clipPath id="SVGID_12_">
		<use xlink:href="#SVGID_11_"  style="overflow:visible;"/>
	</clipPath>
</g>
<g>
	<defs>
		<path id="SVGID_13_" d="M382.3,177.2L187.8,370.4c-17.8,17.7-18,46.7-0.3,64.5c17.7,17.9,46.6,18,64.4,0.3L446.5,242
			c17.8-17.7,18-46.7,0.3-64.6C429.1,159.6,400.2,159.4,382.3,177.2z"/>
	</defs>
	<use xlink:href="#SVGID_13_"  style="overflow:visible;fill-rule:evenodd;clip-rule:evenodd;fill:#FF4967;"/>
	<clipPath id="SVGID_14_">
		<use xlink:href="#SVGID_13_"  style="overflow:visible;"/>
	</clipPath>
</g>
<g>
	<defs>
		<path id="SVGID_15_" d="M1340.6,228.1c0-17.6-14.3-31.8-32-31.8h-24.1v0v-58.4h-58.4l-0.6,32.7c-0.3,16.7-14,30.1-30.7,30.1h-18
			v57h18c24.7,0,24.4,31.2,24.4,31.2v52.8c0,55.3,31,75.1,69.1,75.1c29.8,0,37.4-6.4,37.4-6.4V358c0,0-9.2,1.5-20.4,2
			c-15.6,0.6-20.6-11.2-20.6-23.5v-76.4l24.1,0C1326.2,259.9,1340.6,245.7,1340.6,228.1"/>
	</defs>
	<use xlink:href="#SVGID_15_"  style="overflow:visible;fill-rule:evenodd;clip-rule:evenodd;fill:#343A5E;"/>
	<clipPath id="SVGID_16_">
		<use xlink:href="#SVGID_15_"  style="overflow:visible;"/>
	</clipPath>
</g>
<g>
	<defs>
		<path id="SVGID_17_" d="M1158.7,335.7V159.6c0-16.9-14.1-30.6-31.5-30.6c-16.9,0-30.7,12.9-31.4,29.1h-0.1v1.5v181.3
			c0,53.1,29.9,72.2,66.6,72.2c6.5,0,11.9-0.3,16.4-0.8l-0.1-53.9C1163.5,358.9,1158.7,347.6,1158.7,335.7"/>
	</defs>
	<use xlink:href="#SVGID_17_"  style="overflow:visible;fill-rule:evenodd;clip-rule:evenodd;fill:#343A5E;"/>
	<clipPath id="SVGID_18_">
		<use xlink:href="#SVGID_17_"  style="overflow:visible;"/>
	</clipPath>
</g>
<g>
	<defs>
		<path id="SVGID_19_" d="M994.4,362.5c25.9-10.4,18.2-46.2,18.2-46.2s-13.6,5.8-36.7,6.6c-23.2,0.8-27.8,17.5-25.7,28.2
			C952.2,361.9,968.5,372.9,994.4,362.5z M1076.6,412.1h-56.3v-22.1c-25.3,33.2-79.2,20-88.3,16.8c-34.1-12-41.5-37.8-42.5-40.7
			c-3.5-10.2-3-19.2-2.2-27.2c1.5-14.2,10.4-35.1,38.9-45.2c16.3-5.8,53.4-9.8,72.9-13.7c14.8-3,14.3-12,14.3-12s2.3-14.5-14.6-20.8
			c-23.3-7.4-47.2,8.6-47.4,8.7c-4.7,3.2-10.1,4.8-15.4,4.8c-8.3,0-16.5-3.7-21.7-10.8c-8.5-11.6-5.7-27.6,6.3-35.8
			c1.4-1,26.3-16.8,60.6-19.2c1.3-0.1,2.6-0.2,4-0.2c0.3,0,0.6,0,1,0c7.6-0.2,15.7,0.3,24,1.7c1.4,0.2,2.7,0.5,4.1,0.8
			c0.1,0,0.3,0.1,0.4,0.1c1.6,0.3,3.1,0.7,4.6,1.1c0.1,0,0.1,0,0.2,0c0,0,0.1,0,0.1,0c47.4,12.7,57.2,53.9,57.2,70V412.1z"/>
	</defs>
	<use xlink:href="#SVGID_19_"  style="overflow:visible;fill-rule:evenodd;clip-rule:evenodd;fill:#343A5E;"/>
	<clipPath id="SVGID_20_">
		<use xlink:href="#SVGID_19_"  style="overflow:visible;"/>
	</clipPath>
</g>
<g>
	<defs>
		<path id="SVGID_21_" d="M867.9,269.9c0-50.8-46.1-75.6-83.4-75.7c-34.1,0-54.2,11.4-68.2,26c-15.2-17.3-41.6-25.9-63.4-26
			c-25.4,0-45.2,6.3-59.4,15.5c-1.5,1-3.6,0.8-4.8-0.5l-1.5-1.5c-10.6-10.6-27.7-10.6-38.3,0c-10.6,10.6-10.6,27.7,0,38.3
			c2.3,2.3,4.4,3.5,5.9,4.3c1.4,0.6,2.2,2,2.2,3.5v24.6l0,103c0,16.9,13.7,30.7,30.6,30.7h0.1c16.9,0,30.6-13.7,30.6-30.7V277.9
			c0-17.9,10.5-35.6,32.2-35.6c21.6,0,31.6,17.9,31.6,39.7v127.1h61.2V282c0-21.8,11.5-39.7,33.1-39.7s30.3,17.9,30.3,39.7v127.1
			h61.2V269.9z"/>
	</defs>
	<use xlink:href="#SVGID_21_"  style="overflow:visible;fill-rule:evenodd;clip-rule:evenodd;fill:#343A5E;"/>
	<clipPath id="SVGID_22_">
		<use xlink:href="#SVGID_21_"  style="overflow:visible;"/>
	</clipPath>
</g>
</svg>
