<?xml version="1.0" encoding="UTF-8" standalone="no"?>
<!-- Created with Inkscape (http://www.inkscape.org/) -->

<svg
   xmlns:dc="http://purl.org/dc/elements/1.1/"
   xmlns:cc="http://creativecommons.org/ns#"
   xmlns:rdf="http://www.w3.org/1999/02/22-rdf-syntax-ns#"
   xmlns:svg="http://www.w3.org/2000/svg"
   xmlns="http://www.w3.org/2000/svg"
   xmlns:sodipodi="http://sodipodi.sourceforge.net/DTD/sodipodi-0.dtd"
   xmlns:inkscape="http://www.inkscape.org/namespaces/inkscape"
   version="1.1"
   id="svg2"
   xml:space="preserve"
   width="846.72955"
   height="197"
   viewBox="0 0 846.72954 197"
   sodipodi:docname="logo.svg"
   inkscape:version="0.92.3 (2405546, 2018-03-11)"><metadata
     id="metadata8"><rdf:RDF><cc:Work
         rdf:about=""><dc:format>image/svg+xml</dc:format><dc:type
           rdf:resource="http://purl.org/dc/dcmitype/StillImage" /><dc:title></dc:title></cc:Work></rdf:RDF></metadata><defs
     id="defs6"><clipPath
       clipPathUnits="userSpaceOnUse"
       id="clipPath18"><path
         d="M 0,595.276 H 841.89 V 0 H 0 Z"
         id="path16"
         inkscape:connector-curvature="0" /></clipPath><clipPath
       clipPathUnits="userSpaceOnUse"
       id="clipPath52"><path
         d="M 543.966,315.04 519.05,284.845 v 30.195 h -4.735 v -54.027 h 4.735 v 17.001 l 7.452,9.237 19.715,-26.238 h 5.434 l -22.122,29.887 19.638,24.14 z"
         id="path50"
         inkscape:connector-curvature="0" /></clipPath><linearGradient
       x1="0"
       y1="0"
       x2="1"
       y2="0"
       gradientUnits="userSpaceOnUse"
       gradientTransform="matrix(229.33333,-44,-44,-229.33333,505.94757,292.97586)"
       spreadMethod="pad"
       id="linearGradient62"><stop
         style="stop-opacity:1;stop-color:#e8441e"
         offset="0"
         id="stop58" /><stop
         style="stop-opacity:1;stop-color:#921c80"
         offset="1"
         id="stop60" /></linearGradient><clipPath
       clipPathUnits="userSpaceOnUse"
       id="clipPath72"><path
         d="m 552.742,281.274 c 0,-12.962 7.917,-20.725 18.552,-20.725 v 0 c 10.634,0 18.474,7.763 18.474,20.725 v 0 c 0,12.964 -7.84,20.804 -18.474,20.804 v 0 c -10.635,0 -18.552,-7.84 -18.552,-20.804 m 4.891,0 c 0,9.858 5.123,16.378 13.661,16.378 v 0 c 8.538,0 13.584,-6.52 13.584,-16.378 v 0 c 0,-9.314 -5.046,-16.534 -13.584,-16.534 v 0 c -8.538,0 -13.661,7.22 -13.661,16.534"
         id="path70"
         inkscape:connector-curvature="0" /></clipPath><linearGradient
       x1="0"
       y1="0"
       x2="1"
       y2="0"
       gradientUnits="userSpaceOnUse"
       gradientTransform="matrix(229.33333,-44,-44,-229.33333,506.10901,293.81732)"
       spreadMethod="pad"
       id="linearGradient82"><stop
         style="stop-opacity:1;stop-color:#e8441e"
         offset="0"
         id="stop78" /><stop
         style="stop-opacity:1;stop-color:#921c80"
         offset="1"
         id="stop80" /></linearGradient><clipPath
       clipPathUnits="userSpaceOnUse"
       id="clipPath92"><path
         d="M 627.808,316.903 V 294.16 c -2.33,4.424 -6.909,7.839 -13.74,7.839 v 0 c -10.091,0 -17.697,-7.995 -17.697,-20.879 v 0 c 0,-13.586 7.451,-20.571 17.387,-20.571 v 0 c 5.976,0 11.254,2.949 14.204,8.384 v 0 l 0.311,-7.92 h 4.269 v 55.89 z m -26.314,-35.706 c 0,10.013 5.123,16.766 13.273,16.766 v 0 c 8.228,0 13.351,-6.986 13.351,-16.922 v 0 c 0,-9.391 -4.968,-16.379 -13.351,-16.379 v 0 c -8.384,0 -13.273,6.755 -13.273,16.535"
         id="path90"
         inkscape:connector-curvature="0" /></clipPath><linearGradient
       x1="0"
       y1="0"
       x2="1"
       y2="0"
       gradientUnits="userSpaceOnUse"
       gradientTransform="matrix(229.33333,-44,-44,-229.33333,509.28851,310.38925)"
       spreadMethod="pad"
       id="linearGradient102"><stop
         style="stop-opacity:1;stop-color:#e8441e"
         offset="0"
         id="stop98" /><stop
         style="stop-opacity:1;stop-color:#921c80"
         offset="1"
         id="stop100" /></linearGradient><clipPath
       clipPathUnits="userSpaceOnUse"
       id="clipPath112"><path
         d="m 641.551,281.818 c 0,-14.128 9.16,-21.347 20.338,-21.347 v 0 c 5.821,0 10.091,1.552 13.04,3.648 v 0 3.881 c -2.873,-1.785 -7.064,-3.57 -12.265,-3.57 v 0 c -8.849,0 -15.991,5.667 -16.3,16.844 v 0 h 29.108 l 0.078,1.554 c 0.387,11.021 -5.279,19.25 -16.534,19.25 v 0 c -9.703,0 -17.465,-8.229 -17.465,-20.26 m 17.465,15.834 c 7.064,0 11.954,-4.812 12.187,-12.884 v 0 h -24.684 c 0.931,7.916 5.743,12.884 12.497,12.884"
         id="path110"
         inkscape:connector-curvature="0" /></clipPath><linearGradient
       x1="0"
       y1="0"
       x2="1"
       y2="0"
       gradientUnits="userSpaceOnUse"
       gradientTransform="matrix(229.33333,-44,-44,-229.33333,509.26154,310.24866)"
       spreadMethod="pad"
       id="linearGradient122"><stop
         style="stop-opacity:1;stop-color:#e8441e"
         offset="0"
         id="stop118" /><stop
         style="stop-opacity:1;stop-color:#921c80"
         offset="1"
         id="stop120" /></linearGradient><clipPath
       clipPathUnits="userSpaceOnUse"
       id="clipPath132"><path
         d="m 689.371,293.151 -0.389,8.227 h -4.268 v -40.365 h 4.734 v 22.668 c 0,7.84 4.89,13.661 10.79,13.661 v 0 c 2.328,0 3.959,-0.466 5.589,-1.242 v 0 4.891 c -1.321,0.698 -2.64,1.008 -4.968,1.008 v 0 c -4.891,0 -9.315,-3.183 -11.488,-8.848"
         id="path130"
         inkscape:connector-curvature="0" /></clipPath><linearGradient
       x1="0"
       y1="0"
       x2="1"
       y2="0"
       gradientUnits="userSpaceOnUse"
       gradientTransform="matrix(229.33333,-44,-44,-229.33333,510.48718,316.63684)"
       spreadMethod="pad"
       id="linearGradient142"><stop
         style="stop-opacity:1;stop-color:#e8441e"
         offset="0"
         id="stop138" /><stop
         style="stop-opacity:1;stop-color:#921c80"
         offset="1"
         id="stop140" /></linearGradient><clipPath
       clipPathUnits="userSpaceOnUse"
       id="clipPath152"><path
         d="m 709.168,291.598 c 0,-5.045 2.017,-7.451 10.867,-11.099 v 0 c 8.227,-3.416 11.41,-4.891 11.41,-9.549 v 0 c 0,-4.502 -4.269,-6.598 -9.703,-6.598 v 0 c -5.201,0 -8.694,1.087 -12.419,2.795 v 0 -4.036 c 2.872,-1.476 7.141,-2.64 12.574,-2.64 v 0 c 7.374,0 14.282,3.57 14.282,10.868 v 0 c 0,6.365 -3.958,8.693 -11.953,11.953 v 0 c -8.306,3.338 -10.324,5.123 -10.324,8.539 v 0 c 0,4.192 3.804,6.21 9.858,6.21 v 0 c 4.658,0 7.917,-1.165 11.1,-2.485 v 0 4.27 c -2.483,1.086 -6.054,2.173 -11.177,2.173 v 0 c -9.082,0 -14.515,-4.501 -14.515,-10.401"
         id="path150"
         inkscape:connector-curvature="0" /></clipPath><linearGradient
       x1="0"
       y1="0"
       x2="1"
       y2="0"
       gradientUnits="userSpaceOnUse"
       gradientTransform="matrix(229.33333,-44,-44,-229.33333,511.46942,321.75641)"
       spreadMethod="pad"
       id="linearGradient162"><stop
         style="stop-opacity:1;stop-color:#e8441e"
         offset="0"
         id="stop158" /><stop
         style="stop-opacity:1;stop-color:#921c80"
         offset="1"
         id="stop160" /></linearGradient><clipPath
       clipPathUnits="userSpaceOnUse"
       id="clipPath172"><path
         d="M 0,595.276 H 841.89 V 0 H 0 Z"
         id="path170"
         inkscape:connector-curvature="0" /></clipPath></defs><sodipodi:namedview
     pagecolor="#ffffff"
     bordercolor="#666666"
     borderopacity="1"
     objecttolerance="10"
     gridtolerance="10"
     guidetolerance="10"
     inkscape:pageopacity="0"
     inkscape:pageshadow="2"
     inkscape:window-width="3840"
     inkscape:window-height="2077"
     id="namedview4"
     showgrid="false"
     inkscape:zoom="1.4967089"
     inkscape:cx="527.59097"
     inkscape:cy="80.332757"
     inkscape:window-x="2560"
     inkscape:window-y="0"
     inkscape:window-maximized="1"
     inkscape:current-layer="g10"
     fit-margin-top="0"
     fit-margin-left="0"
     fit-margin-right="0"
     fit-margin-bottom="0" /><g
     id="g10"
     inkscape:groupmode="layer"
     inkscape:label="Charte"
     transform="matrix(1.3333333,0,0,-1.3333333,-134.8424,472.14545)"><g
       id="g12"><g
         id="g14"
         clip-path="url(#clipPath18)"><g
           id="g20"
           transform="translate(157.1228,297.1721)"><path
             d="m 0,0 c -6.36,1.911 -12.303,5.416 -15.618,11.666 4.901,3.027 10.1,5.441 15.419,7.089 C -1.72,16.022 -2.593,12.883 -2.593,9.541 -2.593,6.062 -1.638,2.809 0,0 m 16.418,-2.132 c -6.437,0 -11.675,5.236 -11.675,11.673 0,6.437 5.238,11.673 11.675,11.673 6.436,0 11.672,-5.236 11.672,-11.673 0,-6.437 -5.236,-11.673 -11.672,-11.673 M 5.422,-33.876 c 6.361,-1.911 12.303,-5.415 15.619,-11.665 -4.901,-3.028 -10.101,-5.443 -15.42,-7.09 1.521,2.733 2.395,5.872 2.395,9.215 0,3.479 -0.955,6.732 -2.594,9.54 m -16.417,2.133 c 6.436,0 11.674,-5.236 11.674,-11.673 0,-6.437 -5.238,-11.675 -11.674,-11.675 -6.437,0 -11.674,5.238 -11.674,11.675 0,6.437 5.237,11.673 11.674,11.673 m 38.071,-9.65 c -6.228,10.854 -19.425,16.987 -37.849,16.987 -0.026,0 -0.049,-0.007 -0.074,-0.008 -0.05,0 -0.098,0.008 -0.148,0.008 -10.484,0 -19.011,-8.529 -19.011,-19.01 0,-10.483 8.527,-19.012 19.011,-19.012 0.26,0 0.512,0.03 0.768,0.039 0.129,-0.013 0.254,-0.039 0.387,-0.039 11.422,0 22.907,3.63 33.227,9.666 0.242,-1.511 0.384,-3.116 0.384,-4.846 0,-15.472 -13.119,-25.868 -32.644,-25.868 -19.16,0 -39.781,13.665 -39.781,43.667 0,17.424 11.346,35.429 27.001,47.326 6.227,-10.854 19.424,-16.988 37.849,-16.988 0.025,0 0.049,0.007 0.074,0.008 0.049,-0.001 0.098,-0.008 0.148,-0.008 10.482,0 19.009,8.529 19.009,19.012 0,10.482 -8.527,19.012 -19.009,19.012 -0.26,0 -0.512,-0.029 -0.769,-0.039 -0.128,0.013 -0.254,0.039 -0.386,0.039 -11.423,0 -22.908,-3.629 -33.228,-9.665 -0.242,1.51 -0.384,3.115 -0.384,4.845 0,15.471 13.12,25.865 32.644,25.865 19.159,0 39.78,-13.663 39.78,-43.665 0,-17.423 -11.346,-35.428 -26.999,-47.326 M 61.412,5.933 c 0,35.043 -24.423,51.004 -47.117,51.004 -23.541,0 -39.981,-13.654 -39.981,-33.204 0,-3.257 0.385,-6.308 1.134,-9.139 -18.242,-13.17 -31.439,-33.897 -31.439,-54.403 0,-35.043 24.425,-51.004 47.118,-51.004 23.541,0 39.981,13.655 39.981,33.205 0,3.257 -0.384,6.309 -1.134,9.139 18.241,13.171 31.438,33.897 31.438,54.402"
             style="fill:#1d1d1b;fill-opacity:1;fill-rule:nonzero;stroke:none"
             id="path22"
             inkscape:connector-curvature="0" /></g><g
           id="g24"
           transform="translate(235.3103,315.0403)"><path
             d="M 0,0 H 12.808 V -23.753 L 31.515,0 H 44.089 L 26.392,-23.598 46.573,-54.026 H 32.757 L 18.94,-33.61 12.808,-41.839 V -54.026 H 0 Z"
             style="fill:#1d1e1c;fill-opacity:1;fill-rule:nonzero;stroke:none"
             id="path26"
             inkscape:connector-curvature="0" /></g><g
           id="g28"
           transform="translate(318.2947,288.1047)"><path
             d="m 0,0 c 0,8.927 -4.58,16.922 -12.575,16.922 -8.15,0 -12.807,-7.685 -12.807,-16.922 0,-9.314 4.657,-16.921 12.807,-16.921 C -4.58,-16.921 0,-8.926 0,0 m -39.587,0 c 0,17.077 11.333,27.557 26.935,27.557 15.602,0 27.167,-10.48 27.167,-27.557 0,-17.154 -11.643,-27.556 -27.167,-27.556 -15.369,0 -26.935,10.402 -26.935,27.556"
             style="fill:#1d1e1c;fill-opacity:1;fill-rule:nonzero;stroke:none"
             id="path30"
             inkscape:connector-curvature="0" /></g><g
           id="g32"
           transform="translate(352.1438,304.716)"><path
             d="m 0,0 v -33.377 h 7.219 c 7.762,0 13.351,6.055 13.351,17.31 C 20.57,-6.132 15.835,0 7.607,0 Z M -12.73,10.324 H 8.539 c 14.748,0 25.615,-9.78 25.615,-26.625 0,-17.542 -11.566,-27.401 -25.926,-27.401 H -12.73 Z"
             style="fill:#1d1e1c;fill-opacity:1;fill-rule:nonzero;stroke:none"
             id="path34"
             inkscape:connector-curvature="0" /></g><g
           id="g36"
           transform="translate(393.4451,315.0403)"><path
             d="M 0,0 H 36.017 V -10.557 H 12.652 V -20.26 H 34.853 V -30.272 H 12.652 V -43.469 H 36.017 V -54.026 H 0 Z"
             style="fill:#1d1e1c;fill-opacity:1;fill-rule:nonzero;stroke:none"
             id="path38"
             inkscape:connector-curvature="0" /></g><path
           d="m 436.219,315.04 h 12.808 v -54.026 h -12.808 z"
           style="fill:#1d1e1c;fill-opacity:1;fill-rule:nonzero;stroke:none"
           id="path40"
           inkscape:connector-curvature="0" /><g
           id="g42"
           transform="translate(457.3337,315.0403)"><path
             d="m 0,0 h 12.031 l 20.803,-28.953 c 0.776,-1.475 2.329,-4.114 2.64,-4.735 l 0.31,0.078 c -0.155,1.319 -0.31,4.812 -0.31,7.451 V 0 H 46.496 V -54.026 H 34.697 l -21.268,29.342 c -0.699,1.397 -2.173,3.881 -2.484,4.502 l -0.31,-0.078 c 0.155,-1.63 0.31,-4.734 0.31,-6.83 V -54.026 H 0 Z"
             style="fill:#1d1e1c;fill-opacity:1;fill-rule:nonzero;stroke:none"
             id="path44"
             inkscape:connector-curvature="0" /></g></g></g><g
       id="g46"><g
         id="g48"
         clip-path="url(#clipPath52)"><g
           id="g54"><g
             id="g56"><path
               d="M 543.966,315.04 519.05,284.845 v 30.195 h -4.735 v -54.027 h 4.735 v 17.001 l 7.452,9.237 19.715,-26.238 h 5.434 l -22.122,29.887 19.638,24.14 z"
               style="fill:url(#linearGradient62);stroke:none"
               id="path64"
               inkscape:connector-curvature="0" /></g></g></g></g><g
       id="g66"><g
         id="g68"
         clip-path="url(#clipPath72)"><g
           id="g74"><g
             id="g76"><path
               d="m 552.742,281.274 c 0,-12.962 7.917,-20.725 18.552,-20.725 v 0 c 10.634,0 18.474,7.763 18.474,20.725 v 0 c 0,12.964 -7.84,20.804 -18.474,20.804 v 0 c -10.635,0 -18.552,-7.84 -18.552,-20.804 m 4.891,0 c 0,9.858 5.123,16.378 13.661,16.378 v 0 c 8.538,0 13.584,-6.52 13.584,-16.378 v 0 c 0,-9.314 -5.046,-16.534 -13.584,-16.534 v 0 c -8.538,0 -13.661,7.22 -13.661,16.534"
               style="fill:url(#linearGradient82);stroke:none"
               id="path84"
               inkscape:connector-curvature="0" /></g></g></g></g><g
       id="g86"><g
         id="g88"
         clip-path="url(#clipPath92)"><g
           id="g94"><g
             id="g96"><path
               d="M 627.808,316.903 V 294.16 c -2.33,4.424 -6.909,7.839 -13.74,7.839 v 0 c -10.091,0 -17.697,-7.995 -17.697,-20.879 v 0 c 0,-13.586 7.451,-20.571 17.387,-20.571 v 0 c 5.976,0 11.254,2.949 14.204,8.384 v 0 l 0.311,-7.92 h 4.269 v 55.89 z m -26.314,-35.706 c 0,10.013 5.123,16.766 13.273,16.766 v 0 c 8.228,0 13.351,-6.986 13.351,-16.922 v 0 c 0,-9.391 -4.968,-16.379 -13.351,-16.379 v 0 c -8.384,0 -13.273,6.755 -13.273,16.535"
               style="fill:url(#linearGradient102);stroke:none"
               id="path104"
               inkscape:connector-curvature="0" /></g></g></g></g><g
       id="g106"><g
         id="g108"
         clip-path="url(#clipPath112)"><g
           id="g114"><g
             id="g116"><path
               d="m 641.551,281.818 c 0,-14.128 9.16,-21.347 20.338,-21.347 v 0 c 5.821,0 10.091,1.552 13.04,3.648 v 0 3.881 c -2.873,-1.785 -7.064,-3.57 -12.265,-3.57 v 0 c -8.849,0 -15.991,5.667 -16.3,16.844 v 0 h 29.108 l 0.078,1.554 c 0.387,11.021 -5.279,19.25 -16.534,19.25 v 0 c -9.703,0 -17.465,-8.229 -17.465,-20.26 m 17.465,15.834 c 7.064,0 11.954,-4.812 12.187,-12.884 v 0 h -24.684 c 0.931,7.916 5.743,12.884 12.497,12.884"
               style="fill:url(#linearGradient122);stroke:none"
               id="path124"
               inkscape:connector-curvature="0" /></g></g></g></g><g
       id="g126"><g
         id="g128"
         clip-path="url(#clipPath132)"><g
           id="g134"><g
             id="g136"><path
               d="m 689.371,293.151 -0.389,8.227 h -4.268 v -40.365 h 4.734 v 22.668 c 0,7.84 4.89,13.661 10.79,13.661 v 0 c 2.328,0 3.959,-0.466 5.589,-1.242 v 0 4.891 c -1.321,0.698 -2.64,1.008 -4.968,1.008 v 0 c -4.891,0 -9.315,-3.183 -11.488,-8.848"
               style="fill:url(#linearGradient142);stroke:none"
               id="path144"
               inkscape:connector-curvature="0" /></g></g></g></g><g
       id="g146"><g
         id="g148"
         clip-path="url(#clipPath152)"><g
           id="g154"><g
             id="g156"><path
               d="m 709.168,291.598 c 0,-5.045 2.017,-7.451 10.867,-11.099 v 0 c 8.227,-3.416 11.41,-4.891 11.41,-9.549 v 0 c 0,-4.502 -4.269,-6.598 -9.703,-6.598 v 0 c -5.201,0 -8.694,1.087 -12.419,2.795 v 0 -4.036 c 2.872,-1.476 7.141,-2.64 12.574,-2.64 v 0 c 7.374,0 14.282,3.57 14.282,10.868 v 0 c 0,6.365 -3.958,8.693 -11.953,11.953 v 0 c -8.306,3.338 -10.324,5.123 -10.324,8.539 v 0 c 0,4.192 3.804,6.21 9.858,6.21 v 0 c 4.658,0 7.917,-1.165 11.1,-2.485 v 0 4.27 c -2.483,1.086 -6.054,2.173 -11.177,2.173 v 0 c -9.082,0 -14.515,-4.501 -14.515,-10.401"
               style="fill:url(#linearGradient162);stroke:none"
               id="path164"
               inkscape:connector-curvature="0" /></g></g></g></g><g
       id="g166"><g
         id="g168"
         clip-path="url(#clipPath172)"><g
           id="g174"
           transform="translate(250.2791,230.2873)"><path
             d="m 0,0 c 0,4.697 -2.459,7.843 -6.326,7.843 -3.723,0 -6.108,-3.109 -6.108,-7.772 0,-4.842 2.422,-7.805 6.217,-7.805 C -2.639,-7.734 0,-4.627 0,0 m -14.529,9.36 h 1.987 l 0.108,-3.613 c 1.228,2.349 3.724,3.939 6.614,3.939 4.663,0 8.025,-3.433 8.025,-9.469 0,-6.036 -3.362,-9.831 -7.988,-9.831 -2.927,0 -5.314,1.336 -6.542,3.649 v -11.999 h -2.204 z"
             style="fill:#000000;fill-opacity:1;fill-rule:nonzero;stroke:none"
             id="path176"
             inkscape:connector-curvature="0" /></g><g
           id="g178"
           transform="translate(266.9368,226.673)"><path
             d="m 0,0 c 0,2.782 -2.313,4.229 -4.771,4.229 -2.602,0 -4.952,-1.338 -4.952,-4.229 0,-3.146 2.242,-4.446 4.844,-4.446 C -2.458,-4.446 0,-3.001 0,0 m -11.999,-0.108 c 0,3.975 3.144,5.926 6.649,5.926 2.387,0 4.229,-0.831 5.241,-2.348 v 3.252 c 0,3.037 -1.554,4.626 -5.276,4.626 -2.205,0 -3.941,-0.506 -5.133,-1.048 v 1.807 c 1.013,0.578 3.108,1.193 5.639,1.193 4.952,0 6.939,-2.458 6.939,-6.361 v -9.794 c 0,-1.157 0.109,-2.35 0.253,-2.928 H 0.18 L -0.036,-3.47 C -1.121,-5.097 -3.217,-6 -5.603,-6 c -3.469,0 -6.433,1.807 -6.396,5.892"
             style="fill:#000000;fill-opacity:1;fill-rule:nonzero;stroke:none"
             id="path180"
             inkscape:connector-curvature="0" /></g><path
           d="m 274.126,239.684 h 2.205 V 220.89 h -2.205 z m -0.253,4.988 c 0,0.759 0.613,1.372 1.337,1.372 0.795,0 1.409,-0.613 1.409,-1.372 0,-0.724 -0.614,-1.301 -1.409,-1.301 -0.724,0 -1.337,0.577 -1.337,1.301"
           style="fill:#000000;fill-opacity:1;fill-rule:nonzero;stroke:none"
           id="path182"
           inkscape:connector-curvature="0" /><g
           id="g184"
           transform="translate(281.6428,239.6838)"><path
             d="m 0,0 h 1.987 l 0.145,-3.252 c 1.048,2.168 3.108,3.541 6.071,3.541 4.12,0 6.326,-2.711 6.326,-7.155 v -11.928 h -2.206 v 11.528 c 0,3.579 -1.553,5.676 -4.77,5.676 -3.432,0 -5.348,-2.639 -5.348,-5.639 V -18.794 H 0 Z"
             style="fill:#000000;fill-opacity:1;fill-rule:nonzero;stroke:none"
             id="path186"
             inkscape:connector-curvature="0" /></g><path
           d="m 301.337,246.912 h 2.205 V 220.89 h -2.205 z"
           style="fill:#000000;fill-opacity:1;fill-rule:nonzero;stroke:none"
           id="path188"
           inkscape:connector-curvature="0" /><g
           id="g190"
           transform="translate(310.0447,231.9494)"><path
             d="M 0,0 H 11.493 C 11.384,3.759 9.108,5.999 5.819,5.999 2.675,5.999 0.433,3.686 0,0 m -2.313,-1.374 c 0,5.603 3.614,9.435 8.132,9.435 5.241,0 7.878,-3.832 7.698,-8.964 L 13.481,-1.627 H -0.073 c 0.145,-5.203 3.47,-7.843 7.59,-7.843 2.422,0 4.373,0.832 5.712,1.663 v -1.807 c -1.375,-0.977 -3.361,-1.699 -6.074,-1.699 -5.203,0 -9.468,3.362 -9.468,9.939"
             style="fill:#000000;fill-opacity:1;fill-rule:nonzero;stroke:none"
             id="path192"
             inkscape:connector-curvature="0" /></g><g
           id="g194"
           transform="translate(326.5955,221.8654)"><path
             d="M 0,0 V 1.88 C 1.734,1.085 3.361,0.578 5.783,0.578 c 2.53,0 4.517,0.976 4.517,3.072 0,2.169 -1.481,2.856 -5.312,4.446 -4.12,1.699 -5.061,2.819 -5.061,5.169 0,2.747 2.531,4.842 6.76,4.842 2.385,0 4.046,-0.506 5.205,-1.012 v -1.988 c -1.483,0.616 -3.001,1.158 -5.17,1.158 -2.819,0 -4.589,-0.94 -4.589,-2.893 0,-1.59 0.939,-2.42 4.806,-3.976 3.723,-1.516 5.566,-2.601 5.566,-5.565 0,-3.396 -3.217,-5.06 -6.649,-5.06 C 3.325,-1.229 1.336,-0.687 0,0"
             style="fill:#000000;fill-opacity:1;fill-rule:nonzero;stroke:none"
             id="path196"
             inkscape:connector-curvature="0" /></g><g
           id="g198"
           transform="translate(340.8684,221.8654)"><path
             d="M 0,0 V 1.88 C 1.734,1.085 3.361,0.578 5.783,0.578 c 2.53,0 4.518,0.976 4.518,3.072 0,2.169 -1.482,2.856 -5.313,4.446 -4.12,1.699 -5.061,2.819 -5.061,5.169 0,2.747 2.531,4.842 6.76,4.842 2.386,0 4.047,-0.506 5.205,-1.012 v -1.988 c -1.483,0.616 -3.001,1.158 -5.17,1.158 -2.819,0 -4.589,-0.94 -4.589,-2.893 0,-1.59 0.939,-2.42 4.806,-3.976 3.723,-1.516 5.566,-2.601 5.566,-5.565 0,-3.396 -3.216,-5.06 -6.649,-5.06 C 3.326,-1.229 1.337,-0.687 0,0"
             style="fill:#000000;fill-opacity:1;fill-rule:nonzero;stroke:none"
             id="path200"
             inkscape:connector-curvature="0" /></g><g
           id="g202"
           transform="translate(365.7664,224.7219)"><path
             d="m 0,0 v 13.155 h -2.313 v 1.807 H 0 l 0.253,3.687 H 2.205 V 14.962 H 7.626 V 13.155 H 2.205 V 0.469 c 0,-1.735 0.975,-2.675 2.493,-2.675 1.23,0 2.025,0.361 2.892,0.796 v -1.7 C 6.758,-3.616 5.783,-4.049 4.301,-4.049 2.313,-4.049 0,-3.11 0,0"
             style="fill:#000000;fill-opacity:1;fill-rule:nonzero;stroke:none"
             id="path204"
             inkscape:connector-curvature="0" /></g><g
           id="g206"
           transform="translate(377.366,231.9494)"><path
             d="M 0,0 H 11.493 C 11.385,3.759 9.108,5.999 5.819,5.999 2.675,5.999 0.434,3.686 0,0 m -2.313,-1.374 c 0,5.603 3.615,9.435 8.132,9.435 5.241,0 7.878,-3.832 7.699,-8.964 L 13.481,-1.627 H -0.072 c 0.144,-5.203 3.469,-7.843 7.59,-7.843 2.421,0 4.373,0.832 5.711,1.663 v -1.807 c -1.375,-0.977 -3.361,-1.699 -6.072,-1.699 -5.205,0 -9.47,3.362 -9.47,9.939"
             style="fill:#000000;fill-opacity:1;fill-rule:nonzero;stroke:none"
             id="path208"
             inkscape:connector-curvature="0" /></g><g
           id="g210"
           transform="translate(393.4822,230.3586)"><path
             d="m 0,0 c 0,5.964 3.723,9.614 8.638,9.614 2.422,0 4.193,-0.615 5.205,-1.228 V 6.397 C 12.687,7.048 10.915,7.59 8.964,7.59 5.06,7.59 2.277,4.916 2.313,0 c 0,-5.133 2.963,-7.734 7.048,-7.734 1.772,0 3.289,0.542 4.626,1.264 V -8.385 C 12.613,-9.18 11.133,-9.686 9.072,-9.686 4.12,-9.686 0,-6.505 0,0"
             style="fill:#000000;fill-opacity:1;fill-rule:nonzero;stroke:none"
             id="path212"
             inkscape:connector-curvature="0" /></g><g
           id="g214"
           transform="translate(411.3708,246.9123)"><path
             d="m 0,0 h 2.205 v -10.337 c 1.048,2.061 3.107,3.398 5.998,3.398 4.12,0 6.326,-2.711 6.326,-7.156 v -11.927 h -2.206 v 11.528 c 0,3.579 -1.553,5.676 -4.77,5.676 -3.433,0 -5.348,-2.639 -5.348,-5.639 V -26.022 H 0 Z"
             style="fill:#000000;fill-opacity:1;fill-rule:nonzero;stroke:none"
             id="path216"
             inkscape:connector-curvature="0" /></g><g
           id="g218"
           transform="translate(431.0652,239.6838)"><path
             d="m 0,0 h 1.987 l 0.145,-3.252 c 1.048,2.168 3.107,3.541 6.071,3.541 4.12,0 6.326,-2.711 6.326,-7.155 v -11.928 h -2.206 v 11.528 c 0,3.579 -1.553,5.676 -4.77,5.676 -3.433,0 -5.349,-2.639 -5.349,-5.639 V -18.794 H 0 Z"
             style="fill:#000000;fill-opacity:1;fill-rule:nonzero;stroke:none"
             id="path220"
             inkscape:connector-curvature="0" /></g><g
           id="g222"
           transform="translate(464.6013,230.3225)"><path
             d="m 0,0 c 0,4.591 -2.35,7.626 -6.325,7.626 -3.976,0 -6.361,-3.035 -6.361,-7.626 0,-4.337 2.385,-7.698 6.361,-7.698 C -2.35,-7.698 0,-4.337 0,0 m -14.963,0 c 0,6.036 3.686,9.688 8.638,9.688 4.952,0 8.602,-3.652 8.602,-9.688 0,-6.036 -3.65,-9.649 -8.602,-9.649 -4.952,0 -8.638,3.613 -8.638,9.649"
             style="fill:#000000;fill-opacity:1;fill-rule:nonzero;stroke:none"
             id="path224"
             inkscape:connector-curvature="0" /></g><path
           d="m 471.068,246.912 h 2.205 V 220.89 h -2.205 z"
           style="fill:#000000;fill-opacity:1;fill-rule:nonzero;stroke:none"
           id="path226"
           inkscape:connector-curvature="0" /><g
           id="g228"
           transform="translate(492.4255,230.3225)"><path
             d="m 0,0 c 0,4.591 -2.349,7.626 -6.325,7.626 -3.976,0 -6.361,-3.035 -6.361,-7.626 0,-4.337 2.385,-7.698 6.361,-7.698 C -2.349,-7.698 0,-4.337 0,0 m -14.963,0 c 0,6.036 3.688,9.688 8.638,9.688 4.953,0 8.602,-3.652 8.602,-9.688 0,-6.036 -3.649,-9.649 -8.602,-9.649 -4.95,0 -8.638,3.613 -8.638,9.649"
             style="fill:#000000;fill-opacity:1;fill-rule:nonzero;stroke:none"
             id="path230"
             inkscape:connector-curvature="0" /></g><g
           id="g232"
           transform="translate(512.4812,230.3957)"><path
             d="m 0,0 c 0,4.697 -2.493,7.698 -6.18,7.698 -3.506,0 -6.216,-2.856 -6.216,-7.916 0,-4.626 2.566,-7.59 6.251,-7.59 C -2.964,-7.808 0,-5.386 0,0 m -12.432,-16.662 v 1.951 c 1.446,-0.795 3.65,-1.41 5.819,-1.41 3.759,0 6.505,1.663 6.505,6.398 v 3.687 c -1.264,-2.277 -3.686,-3.687 -6.541,-3.687 -4.59,0 -8.06,3.47 -8.06,9.47 0,6.289 3.578,9.83 8.132,9.83 3.144,0 5.385,-1.555 6.577,-3.794 L 0.182,9.288 H 2.098 V -9.65 c 0,-6.362 -4.158,-8.422 -8.532,-8.422 -2.565,0 -4.697,0.65 -5.998,1.41"
             style="fill:#000000;fill-opacity:1;fill-rule:nonzero;stroke:none"
             id="path234"
             inkscape:connector-curvature="0" /></g><g
           id="g236"
           transform="translate(518.6228,212.8654)"><path
             d="M 0,0 V 1.663 C 0.542,1.374 1.228,1.156 2.132,1.156 c 1.88,0 2.928,1.845 4.445,5.712 l -7.806,19.95 h 2.348 l 6.578,-16.842 6,16.842 h 2.349 L 8.674,6.506 C 6.722,1.338 5.095,-0.577 2.385,-0.577 1.337,-0.577 0.505,-0.324 0,0"
             style="fill:#000000;fill-opacity:1;fill-rule:nonzero;stroke:none"
             id="path238"
             inkscape:connector-curvature="0" /></g></g></g></g></svg>