<svg xmlns="http://www.w3.org/2000/svg" width="292" height="64" viewBox="0 0 292 64">
  <g fill="none" fill-rule="evenodd">
    <path fill="#FF3354" d="M256.53,50.35 L290.65,50.35 C290.96,50.35 291.21,50.6 291.21,50.91 L291.21,58.56 C291.21,58.87 290.96,59.12 290.65,59.12 L256.53,59.12 C256.22,59.12 255.97,58.87 255.97,58.56 L255.97,50.91 C255.97,50.6 256.22,50.35 256.53,50.35 Z"/>
    <path fill="#00587F" fill-rule="nonzero" d="M34.09,49.41 C34.3,49.64 34.29,49.99 34.06,50.2 C33.95,50.3 33.82,50.35 33.67,50.35 L25.08,50.35 C24.92,50.35 24.77,50.28 24.66,50.16 L8.78,32.26 L8.78,49.78 C8.77,50.09 8.52,50.34 8.21,50.35 L0.88,50.35 C0.57,50.34 0.32,50.09 0.32,49.78 L0.32,3.14 C0.32,2.89 0.49,2.67 0.73,2.6 L8.05,0.45 C8.35,0.36 8.67,0.53 8.76,0.84 C8.78,0.89 8.78,0.95 8.78,1 L8.78,28.5 L23.78,11.39 C23.88,11.26 24.04,11.19 24.2,11.19 L33,11.19 C33.31,11.19 33.56,11.43 33.57,11.74 C33.57,11.88 33.52,12.02 33.42,12.13 L17.08,30.38 L34.09,49.41 Z M158.2,11.18 L149.05,11.18 L149.05,1 C149.04,0.69 148.78,0.43 148.47,0.44 C148.42,0.44 148.38,0.45 148.33,0.46 L141,2.6 C140.77,2.68 140.6,2.89 140.6,3.14 L140.6,11.14 L134,11.14 C133.69,11.14 133.44,11.39 133.44,11.7 C133.44,11.7 133.44,11.71 133.44,11.71 L133.44,18.71 C133.44,19.02 133.69,19.27 134,19.27 L140.65,19.27 L140.65,38.07 C140.65,48.07 145.65,51.75 158.3,50.34 C158.59,50.31 158.81,50.07 158.81,49.78 L158.81,43.28 C158.81,42.97 158.56,42.72 158.25,42.72 C158.24,42.72 158.22,42.72 158.21,42.72 C152.21,43 149.1,42.92 149.1,38.07 L149.1,19.32 L158.25,19.32 C158.56,19.32 158.81,19.07 158.81,18.76 L158.81,11.76 C158.82,11.45 158.58,11.19 158.27,11.18 C158.25,11.18 158.22,11.18 158.2,11.18 Z M204,30.85 C203.99,31.82 203.91,32.78 203.78,33.74 C203.73,34.1 203.42,34.37 203.06,34.37 L172.65,34.37 C172.61,34.37 172.57,34.4 172.57,34.45 C172.57,34.46 172.57,34.47 172.57,34.47 C173.93,40.47 178.84,43.61 185.07,43.61 C188.79,43.74 192.36,42.16 194.76,39.32 C195,39.01 195.42,38.93 195.76,39.11 L201.38,42.4 C201.75,42.61 201.89,43.09 201.67,43.46 C201.66,43.48 201.64,43.5 201.63,43.53 C197.99,48.43 192.31,51.36 184.97,51.36 C172.05,51.36 163.68,42.52 163.68,30.77 C163.68,19.18 172.05,10.18 184.35,10.18 C196,10.18 204,19.57 204,30.85 Z M195.45,27.38 C194.25,20.72 189.34,17.85 184.27,17.85 C177.96,17.85 173.67,21.57 172.46,27.38 C172.45,27.42 172.47,27.47 172.52,27.48 C172.53,27.48 172.53,27.48 172.54,27.48 L195.37,27.48 C195.41,27.49 195.46,27.47 195.47,27.43 C195.47,27.41 195.47,27.4 195.47,27.38 L195.45,27.38 Z M232.45,10.18 C227.12,10.18 222.89,12.18 220.31,16.18 L220.31,11.76 C220.31,11.45 220.05,11.19 219.74,11.19 L212.42,11.19 C212.11,11.19 211.85,11.45 211.85,11.76 C211.85,11.76 211.85,11.76 211.85,11.76 L211.85,49.76 C211.85,50.07 212.11,50.33 212.42,50.33 L219.74,50.33 C220.05,50.33 220.31,50.07 220.31,49.76 L220.31,29.36 C220.31,21.36 224.69,18.08 230.25,18.08 C235.58,18.08 239.02,21.22 239.02,27.17 L239.02,49.78 C239.03,50.09 239.28,50.34 239.59,50.35 L247,50.35 C247.31,50.34 247.56,50.09 247.56,49.78 L247.56,26.31 C247.51,16.13 241.25,10.18 232.48,10.18 L232.45,10.18 Z M77.32,11.76 L77.32,49.76 C77.32,50.07 77.07,50.32 76.76,50.33 L69.43,50.33 C69.12,50.32 68.87,50.07 68.86,49.76 L68.86,44.71 C65.65,49.17 61.11,51.36 55.16,51.36 C49.92,51.42 44.9,49.24 41.38,45.36 C37.6,41.44 35.54,36.17 35.67,30.72 C35.53,25.27 37.59,19.99 41.38,16.08 C44.91,12.2 49.92,10.02 55.16,10.08 C61.16,10.08 65.65,12.27 68.86,16.66 L68.86,11.66 C68.87,11.35 69.12,11.1 69.43,11.09 L76.76,11.09 C77.07,11.09 77.33,11.35 77.33,11.66 C77.33,11.69 77.33,11.73 77.32,11.76 Z M68.86,30.76 C68.97,27.43 67.69,24.2 65.34,21.84 C60.43,17.03 52.56,17.03 47.65,21.84 C45.29,24.2 44.02,27.43 44.12,30.76 C44.03,34.11 45.31,37.36 47.65,39.76 C52.61,44.45 60.38,44.45 65.34,39.76 C67.68,37.36 68.95,34.12 68.86,30.77 L68.86,30.76 Z M124.43,16.2 C128.22,20.09 130.28,25.34 130.15,30.76 C130.29,36.21 128.23,41.49 124.43,45.4 C120.91,49.28 115.89,51.46 110.65,51.4 C104.65,51.4 100.16,49.21 96.95,44.83 L96.95,62.66 C96.95,62.97 96.7,63.22 96.39,63.23 L89.06,63.23 C88.75,63.23 88.49,62.97 88.49,62.66 L88.49,11.76 C88.49,11.45 88.75,11.19 89.06,11.19 L96.39,11.19 C96.7,11.2 96.95,11.45 96.95,11.76 L96.95,16.83 C100.16,12.37 104.7,10.18 110.65,10.18 C115.89,10.14 120.9,12.33 124.43,16.21 L124.43,16.2 Z M121.69,30.76 C121.8,27.43 120.52,24.2 118.17,21.84 C113.25,17.03 105.39,17.03 100.47,21.84 C98.13,24.21 96.88,27.44 97,30.77 C96.91,34.12 98.18,37.37 100.52,39.77 C105.49,44.46 113.25,44.46 118.22,39.77 C120.54,37.36 121.79,34.11 121.69,30.77 L121.69,30.76 Z"/>
  </g>
</svg>