<svg id="Logo1" xmlns="http://www.w3.org/2000/svg" viewBox="0 0 567.37 358.85"><defs><style>.cls-1{fill:#00b0cc;}.cls-2,.cls-3{fill:#001e57;}.cls-3,.cls-4{fill-rule:evenodd;}.cls-4{fill:#0e2356;}.cls-5{fill:#1d1d1b;}.cls-6{fill:#ffb600;}</style></defs><title>Logo_OCTO_ACN_Corpo_RVB</title><path class="cls-1" d="M584.73,28.21a10.06,10.06,0,1,1-14.23,0A10.06,10.06,0,0,1,584.73,28.21Z" transform="translate(-20.31 -25.09)"/><path class="cls-1" d="M544.61,68.15a10.07,10.07,0,1,1-14.23,0A10.06,10.06,0,0,1,544.61,68.15Z" transform="translate(-20.31 -25.09)"/><polygon class="cls-2" points="421.94 0 289.06 0 289.06 30.56 340.47 30.56 340.47 136.17 370.54 136.17 370.54 30.56 421.94 30.56 421.94 0"/><path class="cls-3" d="M244.88,132.87a39.51,39.51,0,1,1,24.67-70.3l20.33-20.32a68.12,68.12,0,1,0-45,119.32,67.7,67.7,0,0,0,44.78-16.9l-20.34-20.34A39.2,39.2,0,0,1,244.88,132.87Z" transform="translate(-20.31 -25.09)"/><path class="cls-3" d="M88.91,77.49a16,16,0,1,0,16,16A16,16,0,0,0,88.91,77.49Zm0,28.27A12.25,12.25,0,1,1,101.1,93.51,12.22,12.22,0,0,1,88.92,105.76Z" transform="translate(-20.31 -25.09)"/><path class="cls-3" d="M127.81,93.36A39.43,39.43,0,1,1,88.38,53.85,39.51,39.51,0,0,1,127.81,93.36ZM88.38,25.15a68.21,68.21,0,1,0,68.08,68.21A68.22,68.22,0,0,0,88.38,25.15Z" transform="translate(-20.31 -25.09)"/><path class="cls-2" d="M89,85.6a7.91,7.91,0,1,1-7.9,7.91A7.91,7.91,0,0,1,89,85.6Z" transform="translate(-20.31 -25.09)"/><path class="cls-4" d="M519.57,25.15a68.21,68.21,0,1,0,68.08,68.21A68.22,68.22,0,0,0,519.57,25.15Zm0,107.72A39.51,39.51,0,1,1,559,93.36,39.52,39.52,0,0,1,519.57,132.87Z" transform="translate(-20.31 -25.09)"/><path class="cls-2" d="M519.57,25.15a68.21,68.21,0,1,0,68.08,68.21A68.22,68.22,0,0,0,519.57,25.15Zm0,107.72A39.51,39.51,0,1,1,559,93.36,39.52,39.52,0,0,1,519.57,132.87Z" transform="translate(-20.31 -25.09)"/><rect class="cls-5" x="200.81" y="260.41" width="366.37" height="3"/><path class="cls-5" d="M37.7,320.41H53.21L70.26,372.7H57.84l-3.6-11.63h-19L31.6,372.7H20.43Zm.07,32.25h13.9l-6.91-22.6Z" transform="translate(-20.31 -25.09)"/><path class="cls-5" d="M90.62,373.5a23.26,23.26,0,0,1-7.83-1.28,17,17,0,0,1-10.43-9.87,21.33,21.33,0,0,1-1.51-8.3v-.59a21.35,21.35,0,0,1,1.54-8.3A18,18,0,0,1,83,334.92a21.87,21.87,0,0,1,7.72-1.35,26.88,26.88,0,0,1,6.43.77,16.53,16.53,0,0,1,5.63,2.52,14.39,14.39,0,0,1,4,4.61,17.11,17.11,0,0,1,2,6.95H98.7a7.55,7.55,0,0,0-2.46-4.9,8.13,8.13,0,0,0-5.33-1.61,8.32,8.32,0,0,0-6.69,2.95c-1.66,2-2.5,4.78-2.5,8.42v.59c0,3.84.83,6.73,2.47,8.67a8.57,8.57,0,0,0,6.94,2.92,8.76,8.76,0,0,0,5.55-1.81,7.57,7.57,0,0,0,2.69-5.51H109a17.06,17.06,0,0,1-1.54,6.26,14,14,0,0,1-3.67,4.79,17,17,0,0,1-5.66,3.18A23,23,0,0,1,90.62,373.5Z" transform="translate(-20.31 -25.09)"/><path class="cls-5" d="M130.89,373.5a23.2,23.2,0,0,1-7.82-1.28,17,17,0,0,1-10.44-9.87,21.52,21.52,0,0,1-1.51-8.3v-.59a21.35,21.35,0,0,1,1.55-8.3,18,18,0,0,1,10.58-10.24,21.79,21.79,0,0,1,7.72-1.35,27,27,0,0,1,6.43.77,16.56,16.56,0,0,1,5.62,2.52,14.27,14.27,0,0,1,4,4.61,17.11,17.11,0,0,1,2,6.95H139a7.65,7.65,0,0,0-2.46-4.9,8.15,8.15,0,0,0-5.33-1.61,8.31,8.31,0,0,0-6.69,2.95q-2.5,3-2.5,8.42v.59q0,5.76,2.46,8.67a8.58,8.58,0,0,0,7,2.92,8.8,8.8,0,0,0,5.55-1.81,7.6,7.6,0,0,0,2.68-5.51h9.63a17.26,17.26,0,0,1-1.55,6.26,13.83,13.83,0,0,1-3.67,4.79,17,17,0,0,1-5.66,3.18A22.91,22.91,0,0,1,130.89,373.5Z" transform="translate(-20.31 -25.09)"/><path class="cls-5" d="M171.46,373.5a23.53,23.53,0,0,1-8-1.31,18.12,18.12,0,0,1-10.55-9.95,21.06,21.06,0,0,1-1.5-8.19v-.59a21.42,21.42,0,0,1,1.5-8.19,18.55,18.55,0,0,1,4.23-6.29,18.92,18.92,0,0,1,6.25-4,21,21,0,0,1,7.79-1.43,22.46,22.46,0,0,1,7.13,1.13,16.18,16.18,0,0,1,10.07,9.51,22.78,22.78,0,0,1,1.54,8.82V356H162.2q.23,4.83,2.68,7.43a10.89,10.89,0,0,0,12.5,1.13,6.52,6.52,0,0,0,2.39-3.88h10.07a13.66,13.66,0,0,1-5.7,9.55Q179.4,373.51,171.46,373.5Zm8.09-24.06q-.3-4.38-2.43-6.47a9.25,9.25,0,0,0-11.87.15,10.53,10.53,0,0,0-2.9,6.32Z" transform="translate(-20.31 -25.09)"/><path class="cls-5" d="M196.16,334.45h10.65v6.07a13.17,13.17,0,0,1,4.56-4.9,14.08,14.08,0,0,1,7.94-2.05,14.74,14.74,0,0,1,5.22.88,11.39,11.39,0,0,1,4.12,2.63,12.93,12.93,0,0,1,2.64,4.65,20.48,20.48,0,0,1,1,6.61V372.7H221.59V349.88q0-3.94-1.62-5.81t-5.14-1.87a8.22,8.22,0,0,0-5.74,2.08c-1.51,1.4-2.28,3.51-2.28,6.33V372.7H196.16Z" transform="translate(-20.31 -25.09)"/><path class="cls-5" d="M253.19,373.43q-6.1,0-9.26-3t-3.16-9V342h-4.92v-7.53h4.92v-8.26h10.58v8.26h8.09V342h-8.09v18.43a4.8,4.8,0,0,0,1.07,3.4,4.17,4.17,0,0,0,3.19,1.14,11.24,11.24,0,0,0,2.17-.19,9.49,9.49,0,0,0,1.88-.54v8.19a25.31,25.31,0,0,1-2.72.69A18.94,18.94,0,0,1,253.19,373.43Z" transform="translate(-20.31 -25.09)"/><path class="cls-5" d="M276,373.5a15.52,15.52,0,0,1-5.19-.84,11,11,0,0,1-4.15-2.59,12,12,0,0,1-2.76-4.5,19.11,19.11,0,0,1-1-6.48V334.45h10.59v23.18a8.53,8.53,0,0,0,1.69,5.75,6.27,6.27,0,0,0,5,1.93,8.18,8.18,0,0,0,5.69-2.08c1.54-1.39,2.32-3.5,2.32-6.33V334.45h10.58V372.7H288.18v-6a12.62,12.62,0,0,1-4.45,4.87A14,14,0,0,1,276,373.5Z" transform="translate(-20.31 -25.09)"/><path class="cls-5" d="M306,334.45h10.65v7.31a14.18,14.18,0,0,1,4.78-5.85,13.86,13.86,0,0,1,7.65-2.05v9.88c-4-.05-7,.65-9.19,2.12s-3.24,4-3.24,7.68V372.7H306Z" transform="translate(-20.31 -25.09)"/><path class="cls-5" d="M350.79,373.5a23.53,23.53,0,0,1-8-1.31,18.12,18.12,0,0,1-10.55-9.95,21.06,21.06,0,0,1-1.51-8.19v-.59a21.42,21.42,0,0,1,1.51-8.19,18.55,18.55,0,0,1,4.23-6.29,18.92,18.92,0,0,1,6.25-4,21,21,0,0,1,7.79-1.43,22.46,22.46,0,0,1,7.13,1.13,16.14,16.14,0,0,1,10.06,9.51,22.77,22.77,0,0,1,1.55,8.82V356H341.53q.23,4.83,2.68,7.43a10.89,10.89,0,0,0,12.5,1.13,6.52,6.52,0,0,0,2.39-3.88h10.06a13.62,13.62,0,0,1-5.69,9.55Q358.73,373.51,350.79,373.5Zm8.09-24.06q-.3-4.38-2.43-6.47a9.25,9.25,0,0,0-11.87.15,10.53,10.53,0,0,0-2.9,6.32Z" transform="translate(-20.31 -25.09)"/><path class="cls-6" d="M393.89,323.45h12.69a29.16,29.16,0,0,1,10.73,1.8,21.09,21.09,0,0,1,7.58,4.94,20.18,20.18,0,0,1,4.5,7.41,28.39,28.39,0,0,1,1.47,9.28v.61a29.33,29.33,0,0,1-1.44,9.28,20.14,20.14,0,0,1-4.46,7.54,20.81,20.81,0,0,1-7.62,5,29.19,29.19,0,0,1-10.9,1.84H393.89Zm12.42,43.06a22.36,22.36,0,0,0,8.08-1.33,15.34,15.34,0,0,0,5.77-3.82,16,16,0,0,0,3.49-6,25,25,0,0,0,1.17-7.93v-.53a25.89,25.89,0,0,0-1-7.59,15.61,15.61,0,0,0-3.28-6,14.76,14.76,0,0,0-5.77-3.87,23.31,23.31,0,0,0-8.49-1.38h-6.51v38.39Z" transform="translate(-20.31 -25.09)"/><path class="cls-6" d="M443.81,329a3.65,3.65,0,1,1,2.62-1.07A3.55,3.55,0,0,1,443.81,329Zm-2.68,7.28h5.57v34.92h-5.57Z" transform="translate(-20.31 -25.09)"/><path class="cls-6" d="M472.93,383.94a23.17,23.17,0,0,1-6.74-.87,15.58,15.58,0,0,1-4.77-2.3,10.6,10.6,0,0,1-3-3.41,12.4,12.4,0,0,1-1.41-4.17h5.7q1.22,6.07,10.13,6.07a12.32,12.32,0,0,0,8.22-2.57c2-1.71,3.05-4.44,3.05-8.17v-5.08a11.3,11.3,0,0,1-2,2.47,14.24,14.24,0,0,1-2.81,2.11,16.59,16.59,0,0,1-3.39,1.46,12.25,12.25,0,0,1-3.69.57,16.45,16.45,0,0,1-6.38-1.23,15,15,0,0,1-5.06-3.44,16,16,0,0,1-3.32-5.24,17.76,17.76,0,0,1-1.21-6.65V353a18.57,18.57,0,0,1,1.21-6.71,17.22,17.22,0,0,1,3.35-5.54A15.54,15.54,0,0,1,466,337a15.78,15.78,0,0,1,6.64-1.37,12.74,12.74,0,0,1,7.18,1.83,14.18,14.18,0,0,1,4.29,4.38v-5.61h5.57v32.58a16.05,16.05,0,0,1-1.27,6.64,13.07,13.07,0,0,1-3.49,4.71,14.64,14.64,0,0,1-5.27,2.8A22.69,22.69,0,0,1,472.93,383.94Zm-.07-18.56a12.36,12.36,0,0,0,4.53-.83,10.42,10.42,0,0,0,3.66-2.39,10.88,10.88,0,0,0,2.41-3.86,14.56,14.56,0,0,0,.87-5.21v-.46q0-5.85-3-9.07a10.6,10.6,0,0,0-8.15-3.22,11.4,11.4,0,0,0-4.7.93,9.8,9.8,0,0,0-3.49,2.56,11.55,11.55,0,0,0-2.18,3.92,15.71,15.71,0,0,0-.77,5v.53a13.83,13.83,0,0,0,.87,5.08,11.87,11.87,0,0,0,2.32,3.79,9.66,9.66,0,0,0,3.42,2.39A10.8,10.8,0,0,0,472.86,365.38Z" transform="translate(-20.31 -25.09)"/><path class="cls-6" d="M504.6,329a3.55,3.55,0,0,1-2.62-1.07,3.51,3.51,0,0,1-1.07-2.6,3.55,3.55,0,0,1,1.07-2.61,3.7,3.7,0,0,1,6.31,2.61A3.67,3.67,0,0,1,504.6,329Zm-2.69,7.28h5.57v34.92h-5.57Z" transform="translate(-20.31 -25.09)"/><path class="cls-6" d="M530.36,371.65q-4.83,0-7.15-2.53a9.54,9.54,0,0,1-2.31-6.68v-21.5h-5v-4.67h5v-7.95h5.57v7.95h8.18v4.67h-8.18v21q0,5.07,4.36,5.07a12.49,12.49,0,0,0,2.35-.2,13.5,13.5,0,0,0,1.94-.53v4.67a11.14,11.14,0,0,1-1.94.53A15.43,15.43,0,0,1,530.36,371.65Z" transform="translate(-20.31 -25.09)"/><path class="cls-6" d="M553.44,371.79a16.86,16.86,0,0,1-4.56-.6,10.31,10.31,0,0,1-3.73-1.87,8.89,8.89,0,0,1-2.48-3.21,10.81,10.81,0,0,1-.91-4.6,8.55,8.55,0,0,1,1.48-5.08,10.82,10.82,0,0,1,3.93-3.34,19.91,19.91,0,0,1,5.63-1.83,37.08,37.08,0,0,1,6.54-.57h5v-2.52c0-2.79-.59-4.79-1.75-6s-3.09-1.83-5.77-1.83q-7.25,0-8.05,6.21h-5.57a11.77,11.77,0,0,1,1.51-5.07,10.75,10.75,0,0,1,3.15-3.38,12.88,12.88,0,0,1,4.3-1.86,21.05,21.05,0,0,1,4.93-.57,20.46,20.46,0,0,1,4.83.57,9.92,9.92,0,0,1,4.09,2,10.35,10.35,0,0,1,2.82,3.84,15,15,0,0,1,1.07,6.07v23h-5.56v-4.41a13.26,13.26,0,0,1-4.5,3.74A14.51,14.51,0,0,1,553.44,371.79Zm.53-4.41a14.37,14.37,0,0,0,4.13-.57,9.75,9.75,0,0,0,3.29-1.63,7.88,7.88,0,0,0,2.18-2.64,7.66,7.66,0,0,0,.81-3.57v-4.34h-4.84a29.62,29.62,0,0,0-4.86.37,13.93,13.93,0,0,0-3.89,1.16,6.47,6.47,0,0,0-2.55,2.11,5.48,5.48,0,0,0-.91,3.24,6,6,0,0,0,1.48,4.3Q550.28,367.39,554,367.38Z" transform="translate(-20.31 -25.09)"/><path class="cls-6" d="M581.82,319.58h5.63v51.61h-5.63Z" transform="translate(-20.31 -25.09)"/><path class="cls-2" d="M30.24,203.75H20.55v-6.62H47.43v6.62h-9.7v27.36H30.24Z" transform="translate(-20.31 -25.09)"/><path class="cls-2" d="M101.67,227.08a11.58,11.58,0,0,1-4.37,3.41,13.1,13.1,0,0,1-5.47,1.2,14.64,14.64,0,0,1-5.07-.87,12.19,12.19,0,0,1-4.13-2.47,11.84,11.84,0,0,1-2.76-3.86,13.2,13.2,0,0,1,0-10.08,11.88,11.88,0,0,1,2.76-3.87,12.35,12.35,0,0,1,4.13-2.47,14.87,14.87,0,0,1,5.07-.86,11.61,11.61,0,0,1,4.53.86,9.58,9.58,0,0,1,3.46,2.47,11.33,11.33,0,0,1,2.18,3.87,15.59,15.59,0,0,1,.77,5v2.25H86.07A5.63,5.63,0,0,0,87.94,225a5.26,5.26,0,0,0,3.55,1.22,5.41,5.41,0,0,0,3-.79,7.81,7.81,0,0,0,2.14-2Zm-6.1-10.27a4.17,4.17,0,0,0-1.2-3.12,4.24,4.24,0,0,0-3.22-1.3,5.33,5.33,0,0,0-2.11.39,5.12,5.12,0,0,0-1.56,1,4.32,4.32,0,0,0-1,1.39,4.54,4.54,0,0,0-.4,1.66Z" transform="translate(-20.31 -25.09)"/><path class="cls-2" d="M157.54,215.32a4.06,4.06,0,0,0-1.49-1.27,4.33,4.33,0,0,0-2.06-.51,5.5,5.5,0,0,0-4.25,1.64,6.79,6.79,0,0,0,0,8.54,5.49,5.49,0,0,0,4.25,1.63,3.81,3.81,0,0,0,2.06-.53,6.69,6.69,0,0,0,1.49-1.24l4.75,5a9.15,9.15,0,0,1-4,2.42,14.53,14.53,0,0,1-9.41-.17,12.19,12.19,0,0,1-4.13-2.47,11.69,11.69,0,0,1-2.76-3.86,13.2,13.2,0,0,1,0-10.08,11.73,11.73,0,0,1,2.76-3.87,12.35,12.35,0,0,1,4.13-2.47,14.71,14.71,0,0,1,9.41-.17,9.27,9.27,0,0,1,4,2.43Z" transform="translate(-20.31 -25.09)"/><path class="cls-2" d="M206.69,194.82V211h.1a4.36,4.36,0,0,1,.81-1.34,6.5,6.5,0,0,1,1.39-1.2,8.09,8.09,0,0,1,1.92-.87,8.39,8.39,0,0,1,2.4-.33,9.92,9.92,0,0,1,4.42.84,6.38,6.38,0,0,1,2.62,2.33,9.58,9.58,0,0,1,1.27,3.5,27.06,27.06,0,0,1,.33,4.37v12.86h-7.2V219.69c0-.67,0-1.37-.07-2.09a6.65,6.65,0,0,0-.43-2,3.1,3.1,0,0,0-3.24-2.07,4.42,4.42,0,0,0-2.26.51,3.47,3.47,0,0,0-1.32,1.34,5.65,5.65,0,0,0-.6,1.9,17.35,17.35,0,0,0-.14,2.21v11.61h-7.2V194.82Z" transform="translate(-20.31 -25.09)"/><path class="cls-2" d="M261.65,207.78h6.91V211h.1a5.59,5.59,0,0,1,1-1.34,6.81,6.81,0,0,1,1.48-1.2,9.1,9.1,0,0,1,2-.87,8.39,8.39,0,0,1,2.4-.33,9.92,9.92,0,0,1,4.42.84,6.29,6.29,0,0,1,2.61,2.33,9.42,9.42,0,0,1,1.28,3.5,27.06,27.06,0,0,1,.33,4.37v12.86h-7.2V219.69c0-.67,0-1.37-.07-2.09a6.65,6.65,0,0,0-.43-2,3.12,3.12,0,0,0-3.24-2.07,4.42,4.42,0,0,0-2.26.51,3.47,3.47,0,0,0-1.32,1.34,5.65,5.65,0,0,0-.6,1.9,17.35,17.35,0,0,0-.14,2.21v11.61h-7.2Z" transform="translate(-20.31 -25.09)"/><path class="cls-2" d="M322.94,219.45a12.23,12.23,0,0,1,1-5,11.59,11.59,0,0,1,2.76-3.87,12.35,12.35,0,0,1,4.13-2.47,15.35,15.35,0,0,1,10.13,0,12.35,12.35,0,0,1,4.13,2.47,11.88,11.88,0,0,1,2.76,3.87,13.2,13.2,0,0,1,0,10.08,11.84,11.84,0,0,1-2.76,3.86,12.19,12.19,0,0,1-4.13,2.47,15.18,15.18,0,0,1-10.13,0,12.19,12.19,0,0,1-4.13-2.47,11.55,11.55,0,0,1-2.76-3.86A12.29,12.29,0,0,1,322.94,219.45Zm7.2,0a6,6,0,0,0,1.52,4.27,6.34,6.34,0,0,0,8.49,0,6.79,6.79,0,0,0,0-8.54,6.31,6.31,0,0,0-8.49,0A6,6,0,0,0,330.14,219.45Z" transform="translate(-20.31 -25.09)"/><path class="cls-2" d="M387.79,194.82H395v36.29h-7.2Z" transform="translate(-20.31 -25.09)"/><path class="cls-2" d="M433.92,219.45a12.23,12.23,0,0,1,1-5,11.59,11.59,0,0,1,2.76-3.87,12.25,12.25,0,0,1,4.13-2.47,15.32,15.32,0,0,1,10.12,0,12.25,12.25,0,0,1,4.13,2.47,11.59,11.59,0,0,1,2.76,3.87,13.08,13.08,0,0,1,0,10.08,11.55,11.55,0,0,1-2.76,3.86,12.09,12.09,0,0,1-4.13,2.47,15.15,15.15,0,0,1-10.12,0,12.09,12.09,0,0,1-4.13-2.47,11.55,11.55,0,0,1-2.76-3.86A12.29,12.29,0,0,1,433.92,219.45Zm7.2,0a6,6,0,0,0,1.51,4.27,6.36,6.36,0,0,0,8.5,0,6.79,6.79,0,0,0,0-8.54,6.33,6.33,0,0,0-8.5,0A6,6,0,0,0,441.12,219.45Z" transform="translate(-20.31 -25.09)"/><path class="cls-2" d="M523.15,229.14q0,6.63-3.34,10.06t-10.15,3.43a27.52,27.52,0,0,1-6.14-.69,13.93,13.93,0,0,1-5.57-2.72l4-5.95a15.26,15.26,0,0,0,3.53,2.21,10,10,0,0,0,4.06.81q3.32,0,4.87-1.6a5.65,5.65,0,0,0,1.56-4.11v-2.25h-.1a6.73,6.73,0,0,1-3.09,2.37,9.76,9.76,0,0,1-3.48.7,12,12,0,0,1-4.7-.89A10.5,10.5,0,0,1,501,228a11.31,11.31,0,0,1-2.33-3.82,14.52,14.52,0,0,1-.07-9.36,12.48,12.48,0,0,1,2.11-3.89,10.75,10.75,0,0,1,3.34-2.71,9.43,9.43,0,0,1,4.46-1,10.67,10.67,0,0,1,5.09,1.2,8.44,8.44,0,0,1,1.73,1.17,7.71,7.71,0,0,1,1.15,1.28h.1v-3.08h6.62ZM505,219.3a5.61,5.61,0,0,0,1.65,4,6.32,6.32,0,0,0,1.83,1.27,5.29,5.29,0,0,0,2.28.48,5.35,5.35,0,0,0,2.25-.48,6.15,6.15,0,0,0,1.85-1.27,5.45,5.45,0,0,0,1.22-1.82,5.65,5.65,0,0,0,0-4.37,5.49,5.49,0,0,0-1.22-1.83A6.34,6.34,0,0,0,513,214a5.35,5.35,0,0,0-2.25-.48,5.29,5.29,0,0,0-2.28.48,6.52,6.52,0,0,0-1.83,1.27,5.64,5.64,0,0,0-1.22,1.83A5.58,5.58,0,0,0,505,219.3Z" transform="translate(-20.31 -25.09)"/><path class="cls-2" d="M577,234.9c-.48,1.25-1,2.35-1.39,3.31a7.92,7.92,0,0,1-1.71,2.43,6.8,6.8,0,0,1-2.61,1.49,14.4,14.4,0,0,1-4.18.5,17.07,17.07,0,0,1-5.38-.86l1-5.91a8.26,8.26,0,0,0,3.36.72,6.06,6.06,0,0,0,2-.26,3.23,3.23,0,0,0,1.27-.77,4.13,4.13,0,0,0,.84-1.22q.35-.72.72-1.68l.53-1.35-10.22-23.52h7.77l6,15.41h.1l5.14-15.41h7.39Z" transform="translate(-20.31 -25.09)"/><path class="cls-5" d="M20.58,275h8.55q4.62,0,6.72,1.95a7,7,0,0,1,2.1,5.4v.12a6.37,6.37,0,0,1-2.16,5.17q-2.16,1.81-6.36,1.82H27.36v7H20.58Zm8.19,9.9c1.81,0,2.73-.8,2.73-2.4v-.12a2.14,2.14,0,0,0-.68-1.79,3.25,3.25,0,0,0-2-.52H27.36v4.83Z" transform="translate(-20.31 -25.09)"/><path class="cls-5" d="M51.87,275h8.79l6.72,21.45h-7.2l-1-3.57H52.41l-1,3.57H45.12Zm1.83,13.26h4.23l-2.1-7.77Z" transform="translate(-20.31 -25.09)"/><path class="cls-5" d="M77.4,275h8.76q4.47,0,6.72,1.75A6.21,6.21,0,0,1,95.13,282v.12a5.69,5.69,0,0,1-1,3.55,6.72,6.72,0,0,1-2.61,2.06l4.89,8.76H89.25l-4-7.35H84.18v7.35H77.4Zm8.37,9.72q2.79,0,2.79-2.34v-.12a1.92,1.92,0,0,0-.69-1.67,3.58,3.58,0,0,0-2.07-.49H84.18v4.62Z" transform="translate(-20.31 -25.09)"/><path class="cls-5" d="M110,280.21h-5.4V275h17.67v5.22h-5.43v16.23H110Z" transform="translate(-20.31 -25.09)"/><path class="cls-5" d="M156.12,296.83a13.31,13.31,0,0,1-4.74-.8,10.06,10.06,0,0,1-3.57-2.25,9.77,9.77,0,0,1-2.25-3.48,12.27,12.27,0,0,1-.78-4.45v-.24a11.18,11.18,0,0,1,.88-4.52,10.17,10.17,0,0,1,2.43-3.45,10.83,10.83,0,0,1,3.65-2.2,12.82,12.82,0,0,1,4.5-.78,13.82,13.82,0,0,1,4.57.73,10.7,10.7,0,0,1,3.66,2.12,9.6,9.6,0,0,1,2.42,3.37,11.29,11.29,0,0,1,.87,4.55v.24a12.15,12.15,0,0,1-.83,4.57,9.81,9.81,0,0,1-2.35,3.51A10.83,10.83,0,0,1,160.9,296,13.43,13.43,0,0,1,156.12,296.83Zm.18-5.34a3.87,3.87,0,0,0,3.19-1.49,6.54,6.54,0,0,0,1.19-4.18v-.24a6.36,6.36,0,0,0-1.2-4.17,4,4,0,0,0-3.24-1.44,3.91,3.91,0,0,0-3.17,1.42,6.42,6.42,0,0,0-1.18,4.19v.24a6.52,6.52,0,0,0,1.18,4.21A4,4,0,0,0,156.3,291.49Z" transform="translate(-20.31 -25.09)"/><path class="cls-5" d="M178.32,275h14.85v5.22h-8v4h6.49v5h-6.49v7.2h-6.8Z" transform="translate(-20.31 -25.09)"/></svg>